<?xml version="1.0" encoding="UTF-8"?>
<svg id="Capa_1" data-name="Capa 1" xmlns="http://www.w3.org/2000/svg" xmlns:xlink="http://www.w3.org/1999/xlink" viewBox="0 0 676.31 910.18">
  <defs>
    <style>
      .cls-1 {
        fill: url(#Degradado_sin_nombre_17-12);
      }

      .cls-1, .cls-2, .cls-3, .cls-4, .cls-5, .cls-6, .cls-7, .cls-8, .cls-9, .cls-10, .cls-11, .cls-12, .cls-13, .cls-14, .cls-15, .cls-16, .cls-17, .cls-18, .cls-19, .cls-20, .cls-21, .cls-22, .cls-23, .cls-24, .cls-25, .cls-26, .cls-27, .cls-28, .cls-29, .cls-30, .cls-31, .cls-32, .cls-33, .cls-34, .cls-35, .cls-36 {
        stroke-width: 0px;
      }

      .cls-2 {
        fill: url(#Degradado_sin_nombre_17);
      }

      .cls-3 {
        fill: url(#Degradado_sin_nombre_17-6);
      }

      .cls-4 {
        fill: url(#Degradado_sin_nombre_17-5);
      }

      .cls-5 {
        fill: #2e3192;
      }

      .cls-6 {
        fill: url(#Degradado_sin_nombre_17-3);
      }

      .cls-7 {
        fill: url(#Degradado_sin_nombre_17-22);
      }

      .cls-8 {
        fill: url(#Degradado_sin_nombre_17-27);
      }

      .cls-9 {
        fill: url(#Degradado_sin_nombre_17-19);
      }

      .cls-10 {
        fill: url(#Degradado_sin_nombre_17-29);
      }

      .cls-11 {
        fill: url(#Degradado_sin_nombre_17-21);
      }

      .cls-12 {
        fill: url(#Degradado_sin_nombre_17-2);
      }

      .cls-13 {
        fill: url(#Degradado_sin_nombre_17-24);
      }

      .cls-14 {
        fill: url(#Degradado_sin_nombre_17-28);
      }

      .cls-15 {
        fill: url(#Degradado_sin_nombre_17-18);
      }

      .cls-16 {
        fill: url(#Degradado_sin_nombre_17-9);
      }

      .cls-17 {
        fill: url(#Degradado_sin_nombre_325-3);
      }

      .cls-18 {
        fill: url(#Degradado_sin_nombre_17-25);
      }

      .cls-19 {
        fill: url(#Degradado_sin_nombre_17-7);
      }

      .cls-20 {
        fill: url(#Degradado_sin_nombre_17-15);
      }

      .cls-21 {
        fill: url(#Degradado_sin_nombre_17-16);
      }

      .cls-22 {
        fill: url(#Degradado_sin_nombre_17-14);
      }

      .cls-23 {
        fill: url(#Degradado_sin_nombre_17-23);
      }

      .cls-24 {
        fill: url(#Degradado_sin_nombre_17-8);
      }

      .cls-25 {
        fill: url(#Degradado_sin_nombre_325-2);
      }

      .cls-26 {
        fill: url(#Degradado_sin_nombre_17-30);
      }

      .cls-27 {
        fill: url(#Degradado_sin_nombre_325);
      }

      .cls-28 {
        fill: url(#Degradado_sin_nombre_17-31);
      }

      .cls-29 {
        fill: url(#Degradado_sin_nombre_17-13);
      }

      .cls-30 {
        fill: url(#Degradado_sin_nombre_17-11);
      }

      .cls-31 {
        fill: url(#Degradado_sin_nombre_17-17);
      }

      .cls-32 {
        fill: url(#Degradado_sin_nombre_17-20);
      }

      .cls-33 {
        fill: url(#Degradado_sin_nombre_17-4);
      }

      .cls-34 {
        fill: url(#Degradado_sin_nombre_17-32);
      }

      .cls-35 {
        fill: url(#Degradado_sin_nombre_17-26);
      }

      .cls-36 {
        fill: url(#Degradado_sin_nombre_17-10);
      }
    </style>
    <linearGradient id="Degradado_sin_nombre_17" data-name="Degradado sin nombre 17" x1="238.06" y1="100.98" x2="437.39" y2="100.98" gradientUnits="userSpaceOnUse">
      <stop offset="0" stop-color="#996328"/>
      <stop offset=".43" stop-color="#ffd28a"/>
      <stop offset="1" stop-color="#683f16"/>
    </linearGradient>
    <linearGradient id="Degradado_sin_nombre_17-2" data-name="Degradado sin nombre 17" x1="254.6" y1="174.97" x2="420.85" y2="174.97" xlink:href="#Degradado_sin_nombre_17"/>
    <linearGradient id="Degradado_sin_nombre_17-3" data-name="Degradado sin nombre 17" x1="298.94" y1="32.03" x2="376.51" y2="32.03" xlink:href="#Degradado_sin_nombre_17"/>
    <linearGradient id="Degradado_sin_nombre_17-4" data-name="Degradado sin nombre 17" x1="321.5" y1="26.93" x2="327.84" y2="26.93" xlink:href="#Degradado_sin_nombre_17"/>
    <linearGradient id="Degradado_sin_nombre_17-5" data-name="Degradado sin nombre 17" x1="347.61" y1="26.93" x2="353.96" y2="26.93" xlink:href="#Degradado_sin_nombre_17"/>
    <linearGradient id="Degradado_sin_nombre_17-6" data-name="Degradado sin nombre 17" x1="90.28" y1="480.69" x2="585.18" y2="480.69" xlink:href="#Degradado_sin_nombre_17"/>
    <linearGradient id="Degradado_sin_nombre_17-7" data-name="Degradado sin nombre 17" x1="454.53" y1="151.11" x2="639.97" y2="151.11" xlink:href="#Degradado_sin_nombre_17"/>
    <linearGradient id="Degradado_sin_nombre_17-8" data-name="Degradado sin nombre 17" x1="580.24" y1="127.31" x2="624.49" y2="127.31" xlink:href="#Degradado_sin_nombre_17"/>
    <linearGradient id="Degradado_sin_nombre_17-9" data-name="Degradado sin nombre 17" x1="572.04" y1="183.64" x2="610.56" y2="183.64" xlink:href="#Degradado_sin_nombre_17"/>
    <linearGradient id="Degradado_sin_nombre_17-10" data-name="Degradado sin nombre 17" x1="466.9" y1="118.62" x2="587.95" y2="118.62" xlink:href="#Degradado_sin_nombre_17"/>
    <linearGradient id="Degradado_sin_nombre_17-11" data-name="Degradado sin nombre 17" x1="620.85" y1="212.09" x2="664.77" y2="212.09" xlink:href="#Degradado_sin_nombre_17"/>
    <linearGradient id="Degradado_sin_nombre_17-12" data-name="Degradado sin nombre 17" x1="648.67" y1="235.7" x2="662.07" y2="235.7" xlink:href="#Degradado_sin_nombre_17"/>
    <linearGradient id="Degradado_sin_nombre_17-13" data-name="Degradado sin nombre 17" x1="634.4" y1="156.13" x2="662.74" y2="156.13" xlink:href="#Degradado_sin_nombre_17"/>
    <linearGradient id="Degradado_sin_nombre_17-14" data-name="Degradado sin nombre 17" x1="660.97" y1="158.55" x2="673.78" y2="158.55" xlink:href="#Degradado_sin_nombre_17"/>
    <linearGradient id="Degradado_sin_nombre_17-15" data-name="Degradado sin nombre 17" x1="599.04" y1="211.09" x2="617.28" y2="211.09" xlink:href="#Degradado_sin_nombre_17"/>
    <linearGradient id="Degradado_sin_nombre_17-16" data-name="Degradado sin nombre 17" x1="607.54" y1="225.31" x2="612.76" y2="225.31" xlink:href="#Degradado_sin_nombre_17"/>
    <linearGradient id="Degradado_sin_nombre_17-17" data-name="Degradado sin nombre 17" x1="483.93" y1="138.78" x2="582.22" y2="138.78" xlink:href="#Degradado_sin_nombre_17"/>
    <linearGradient id="Degradado_sin_nombre_17-18" data-name="Degradado sin nombre 17" x1="606.19" y1="158.21" x2="636.69" y2="158.21" xlink:href="#Degradado_sin_nombre_17"/>
    <linearGradient id="Degradado_sin_nombre_17-19" data-name="Degradado sin nombre 17" x1="36.34" y1="151.11" x2="221.78" y2="151.11" xlink:href="#Degradado_sin_nombre_17"/>
    <linearGradient id="Degradado_sin_nombre_17-20" data-name="Degradado sin nombre 17" x1="51.82" y1="127.31" x2="96.07" y2="127.31" xlink:href="#Degradado_sin_nombre_17"/>
    <linearGradient id="Degradado_sin_nombre_17-21" data-name="Degradado sin nombre 17" x1="65.76" y1="183.64" x2="104.27" y2="183.64" xlink:href="#Degradado_sin_nombre_17"/>
    <linearGradient id="Degradado_sin_nombre_17-22" data-name="Degradado sin nombre 17" x1="88.36" y1="118.62" x2="209.41" y2="118.62" xlink:href="#Degradado_sin_nombre_17"/>
    <linearGradient id="Degradado_sin_nombre_17-23" data-name="Degradado sin nombre 17" x1="11.55" y1="212.09" x2="55.47" y2="212.09" xlink:href="#Degradado_sin_nombre_17"/>
    <linearGradient id="Degradado_sin_nombre_17-24" data-name="Degradado sin nombre 17" x1="14.24" y1="235.7" x2="27.64" y2="235.7" xlink:href="#Degradado_sin_nombre_17"/>
    <linearGradient id="Degradado_sin_nombre_17-25" data-name="Degradado sin nombre 17" x1="13.57" y1="156.13" x2="41.92" y2="156.13" xlink:href="#Degradado_sin_nombre_17"/>
    <linearGradient id="Degradado_sin_nombre_17-26" data-name="Degradado sin nombre 17" x1="2.53" y1="158.55" x2="15.35" y2="158.55" xlink:href="#Degradado_sin_nombre_17"/>
    <linearGradient id="Degradado_sin_nombre_17-27" data-name="Degradado sin nombre 17" x1="59.03" y1="211.09" x2="77.27" y2="211.09" xlink:href="#Degradado_sin_nombre_17"/>
    <linearGradient id="Degradado_sin_nombre_17-28" data-name="Degradado sin nombre 17" x1="63.55" y1="225.31" x2="68.77" y2="225.31" xlink:href="#Degradado_sin_nombre_17"/>
    <linearGradient id="Degradado_sin_nombre_17-29" data-name="Degradado sin nombre 17" x1="94.09" y1="138.78" x2="192.39" y2="138.78" xlink:href="#Degradado_sin_nombre_17"/>
    <linearGradient id="Degradado_sin_nombre_17-30" data-name="Degradado sin nombre 17" x1="39.62" y1="158.21" x2="70.13" y2="158.21" xlink:href="#Degradado_sin_nombre_17"/>
    <linearGradient id="Degradado_sin_nombre_17-31" data-name="Degradado sin nombre 17" x1="119.58" y1="466.01" x2="556.73" y2="466.01" xlink:href="#Degradado_sin_nombre_17"/>
    <linearGradient id="Degradado_sin_nombre_17-32" data-name="Degradado sin nombre 17" x1="0" y1="559.78" x2="676.31" y2="559.78" xlink:href="#Degradado_sin_nombre_17"/>
    <linearGradient id="Degradado_sin_nombre_325" data-name="Degradado sin nombre 325" x1="33.03" y1="783.98" x2="139.43" y2="783.98" gradientUnits="userSpaceOnUse">
      <stop offset="0" stop-color="#ac773a"/>
      <stop offset=".09" stop-color="#c99756"/>
      <stop offset=".19" stop-color="#e0b16d"/>
      <stop offset=".29" stop-color="#f1c37d"/>
      <stop offset=".39" stop-color="#fbce86"/>
      <stop offset=".51" stop-color="#ffd28a"/>
      <stop offset=".75" stop-color="#fdd088"/>
      <stop offset=".83" stop-color="#f6c982"/>
      <stop offset=".9" stop-color="#ecbd77"/>
      <stop offset=".95" stop-color="#dcac69"/>
      <stop offset=".99" stop-color="#c89656"/>
      <stop offset="1" stop-color="#c18f4f"/>
    </linearGradient>
    <linearGradient id="Degradado_sin_nombre_325-2" data-name="Degradado sin nombre 325" x1="536.88" x2="643.29" xlink:href="#Degradado_sin_nombre_325"/>
    <linearGradient id="Degradado_sin_nombre_325-3" data-name="Degradado sin nombre 325" x1="71.27" y1="846.24" x2="605.04" y2="846.24" xlink:href="#Degradado_sin_nombre_325"/>
  </defs>
  <g>
    <path class="cls-5" d="M520.32,567.88c45.77-88.39,43.72-276.58,41.69-338.15l-224.28-11.31-224.29,11.31c-2.04,61.56-4.12,249.68,41.69,338.15,55.79,107.73,153.91,159.7,182.59,173.06,28.68-13.36,126.81-65.33,182.6-173.06Z"/>
    <g>
      <path class="cls-2" d="M423.58,139.33c1.95-6.91,15.48-19.6,13.64-46.37-2.05-29.75-31.06-46.18-56.84-42.71-25.79,3.47-39.92,21.57-38.68,43.89.64,11.52,10.55,30.97,34.09,31.92,19.19.77,29.76-12.83,29.76-25.1,0-11.53-9.31-19.72-19.71-19.72s-18.84,8.44-18.84,18.85c0,4.91,1.89,9.37,4.97,12.72-4.19-.48-9.93-2.45-13.4-9.25-5.95-11.65-.75-28.27,12.15-34.96,13.14-6.82,29.68-6.17,41.53,9.05,9.39,12.06,7.74,35.63-4.59,48.85-12.98,13.92-37.26,22-69.92,2.85-32.67,19.15-56.94,11.07-69.92-2.85-12.32-13.22-13.97-36.79-4.59-48.85,11.85-15.22,28.39-15.87,41.53-9.05,12.9,6.69,18.1,23.31,12.15,34.96-3.47,6.8-9.21,8.78-13.4,9.25,3.08-3.35,4.97-7.81,4.97-12.72,0-10.41-8.44-18.85-18.84-18.85s-19.72,8.18-19.72,19.72c0,12.27,10.57,25.88,29.76,25.1,23.54-.95,33.45-20.4,34.09-31.92,1.24-22.32-12.89-40.42-38.68-43.89-25.79-3.47-54.8,12.96-56.84,42.71-1.84,26.77,11.68,39.46,13.64,46.37,1.64,5.81-3.41,12.83-3.41,12.83h178.53s-5.05-7.03-3.41-12.83ZM385.79,91.23c5.13,0,9.28,4.15,9.28,9.28s-4.15,9.28-9.28,9.28-9.28-4.15-9.28-9.28,4.16-9.28,9.28-9.28ZM289.66,109.79c-5.13,0-9.28-4.15-9.28-9.28s4.15-9.28,9.28-9.28,9.28,4.15,9.28,9.28-4.16,9.28-9.28,9.28Z"/>
      <path class="cls-12" d="M420.85,162.33v25.29h-166.25v-25.29h166.25ZM343.08,174.97c0-2.95-2.4-5.36-5.36-5.36s-5.36,2.4-5.36,5.36,2.4,5.36,5.36,5.36,5.36-2.4,5.36-5.36ZM366.14,174.97c0-2.95-2.4-5.36-5.36-5.36s-5.36,2.4-5.36,5.36,2.4,5.36,5.36,5.36,5.36-2.4,5.36-5.36ZM389.2,174.97c0-2.95-2.4-5.36-5.36-5.36s-5.36,2.4-5.36,5.36,2.4,5.36,5.36,5.36,5.36-2.4,5.36-5.36ZM412.26,174.97c0-2.95-2.4-5.36-5.36-5.36s-5.36,2.4-5.36,5.36,2.4,5.36,5.36,5.36,5.36-2.4,5.36-5.36ZM320.02,174.97c0-2.95-2.4-5.36-5.36-5.36s-5.36,2.4-5.36,5.36,2.4,5.36,5.36,5.36,5.36-2.4,5.36-5.36ZM296.96,174.97c0-2.95-2.4-5.36-5.36-5.36s-5.36,2.4-5.36,5.36,2.4,5.36,5.36,5.36,5.36-2.4,5.36-5.36ZM273.9,174.97c0-2.95-2.4-5.36-5.36-5.36s-5.36,2.4-5.36,5.36,2.4,5.36,5.36,5.36,5.36-2.4,5.36-5.36Z"/>
      <path class="cls-6" d="M355.59,51.02c-.1.3-.23.59-.31.9h-.01c-2.68,7.08-9.51,12.13-17.54,12.13s-14.86-5.05-17.54-12.14c-.01.01-.39-1.06-.39-1.08-4.08-11.92-20.86-19.92-20.86-19.92,0,0,9.03-10.5,22.56-7.93,5.11-10.48,16.23-22.97,16.23-22.97,0,0,11.12,12.5,16.23,22.97,13.52-2.56,22.56,7.93,22.56,7.93-7.7,3.67-18.21,11.66-20.93,20.11ZM337.73,40.84c-4.94,0-8.95,4.01-8.95,8.95s4.01,8.95,8.95,8.95,8.95-4.01,8.95-8.95-4.01-8.95-8.95-8.95Z"/>
      <path class="cls-33" d="M321.5,22.97c6.78,2.73,6.31,9.05,6.31,9.05.28-5.45-1.22-8.01-5.69-10.19l-.62,1.14Z"/>
      <path class="cls-4" d="M353.96,22.97c-6.78,2.73-6.31,9.05-6.31,9.05-.28-5.45,1.22-8.01,5.69-10.19l.62,1.14Z"/>
    </g>
    <path class="cls-3" d="M540.11,578.13c-70.48,136.1-202.39,187.14-202.39,187.14,0,0-131.91-51.04-202.39-187.14-58.4-112.78-43.31-369.64-43.31-369.64l245.7-12.39,245.7,12.39s15.09,256.86-43.31,369.64ZM520.32,567.88c45.77-88.39,43.72-276.58,41.69-338.15l-224.28-11.31-224.29,11.31c-2.04,61.56-4.12,249.68,41.69,338.15,55.79,107.73,153.91,159.7,182.59,173.06,28.68-13.36,126.81-65.33,182.6-173.06Z"/>
    <g>
      <path class="cls-19" d="M457.04,95.69c-1.19.13-2.2,1.02-2.45,2.25-.31,1.53.69,3.02,2.21,3.32.59.12,59.6,12.11,100.93,35.85,56.29,32.32,76.75,67.66,76.95,68.01.77,1.36,2.49,1.83,3.85,1.07,1.36-.77,1.84-2.49,1.07-3.84-.84-1.49-21.3-36.97-79.06-70.13-42.15-24.2-102.04-36.37-102.64-36.49-.3-.06-.59-.07-.87-.04Z"/>
      <path class="cls-24" d="M598.01,100.59c-9.77,1.1-17.5,9.29-17.76,19.38-.11,4.43,1.5,8.64,4.55,11.86,3.05,3.21,7.17,5.05,11.6,5.16,3.69.09,7.21-1.25,9.88-3.8,2.68-2.55,4.21-5.98,4.3-9.68.08-3.11-1.05-6.06-3.19-8.31-2.14-2.25-5.03-3.54-8.14-3.62-1.58-.03,4.85,2.5,5.68,11.78.19,2.18-.96,4.22-2.55,5.73-1.59,1.51-3.68,2.3-5.85,2.25-2.92-.08-5.64-1.28-7.65-3.4-2.01-2.12-3.08-4.9-3-7.82.21-7.92,6.81-14.2,14.76-14,10.3.27,18.46,8.87,18.19,19.17-.14,5.44-1.53,12.95-7.33,17.84-5.77,4.87-14.88,6.45-27.07,4.7-1.54-.21-2.97.85-3.2,2.39-.22,1.54.85,2.98,2.39,3.2,13.86,1.98,24.47-.01,31.52-5.97,5.86-4.95,9.09-12.56,9.33-22.01.35-13.42-10.28-24.61-23.69-24.96-.94-.02-1.87.02-2.79.12Z"/>
      <path class="cls-16" d="M604.48,165.63c-.25.03-.49.09-.74.19-1.45.58-2.15,2.22-1.57,3.67,3.13,7.8,3.58,14.04,1.32,18.57-2.24,4.49-6.9,6.57-10.42,7.53-3.16.85-6.47.43-9.32-1.2-2.85-1.63-4.89-4.27-5.75-7.44-.65-2.39-.33-4.88.91-7.03,1.23-2.15,3.22-3.68,5.61-4.33,1.78-.48,3.61-.24,5.2.67,1.59.91,2.72,2.38,3.2,4.15.34,1.27.11,2.55-.48,3.73-4.02,8.05-12.96-.1-12.55,1.41.63,2.32,2.13,4.26,4.22,5.46,2.09,1.2,4.5,1.52,6.84.88,2.72-.74,4.99-2.49,6.39-4.94,1.4-2.45,1.77-5.29,1.03-8.01-.87-3.22-2.95-5.91-5.84-7.57-2.9-1.66-6.29-2.1-9.48-1.22-7.93,2.15-12.64,10.35-10.48,18.29,1.25,4.62,4.23,8.48,8.39,10.86,4.15,2.38,8.99,2.99,13.61,1.75,6.65-1.8,11.49-5.42,14-10.46,3-6.02,2.62-13.83-1.14-23.18-.48-1.21-1.7-1.89-2.94-1.75Z"/>
      <path class="cls-36" d="M466.9,94.57s39.34,7.76,66.69,19.5c26.82,11.51,54.02,29.62,54.02,29.62,0,0-10.62-8.74-11.35-22.5-.79-14.74,11.69-21.59,11.69-21.59,0,0-33.87-1.54-39.32,12.77-8.08-10.89-41.72-22.33-81.73-17.79Z"/>
      <g>
        <path class="cls-30" d="M657.98,216.84c2.15,1.93,6.79,1.2,6.79,1.2,0,0-11.27,13.04-16.99,3.91,5.72,9.14-10.94,13.57-10.94,13.57,0,0,2.68-3.86,1.89-6.63-.79-2.77-7.63-6.76-13.65-13.63-5.29-6.04-7.18-16.94,3.67-23.72,10.85-6.79,19.82-.33,22.94,7.08,3.55,8.41,4.14,16.31,6.29,18.23Z"/>
        <path class="cls-1" d="M658.67,229.15c-1.59-2.53-4.92-3.3-7.46-1.72s-3.3,4.92-1.72,7.46c1.59,2.53,12.58,9.9,12.58,9.9,0,0-1.81-13.1-3.4-15.64Z"/>
      </g>
      <g>
        <path class="cls-29" d="M659.15,150.1c1.83-.14,3.54-2.59,3.54-2.59,0,0,1.04,10.91-5.67,9.51,6.71,1.39,1.42,10.99,1.42,10.99,0,0-.59-2.93-2.21-3.78-1.62-.86-6.46.53-12.25.28-5.1-.23-10.93-4.15-9.28-12.11,1.65-7.96,8.56-9.24,13.33-7.42,5.42,2.07,9.3,5.27,11.13,5.13Z"/>
        <path class="cls-22" d="M665.11,155.19c-1.86-.39-3.68.81-4.07,2.67s.81,3.68,2.67,4.07c1.86.39,10.07-1.42,10.07-1.42,0,0-6.81-4.93-8.67-5.31Z"/>
      </g>
      <g>
        <path class="cls-20" d="M614.38,216.77c.67,1.22,2.9,1.64,2.9,1.64,0,0-7.24,4.13-8.37-.96,1.13,5.09-7.17,4.42-7.17,4.42,0,0,1.84-1.33,1.93-2.72.09-1.39-2.39-4.31-4.02-8.41-1.44-3.61-.54-8.88,5.49-10.22,6.04-1.35,9.09,3.04,9.32,6.92.26,4.41-.74,8.1-.07,9.32Z"/>
        <path class="cls-21" d="M612.71,222.5c-.31-1.41-1.71-2.3-3.12-1.98-1.41.31-2.3,1.71-1.98,3.12s4.14,6.54,4.14,6.54c0,0,1.28-6.26.97-7.67Z"/>
      </g>
      <path class="cls-31" d="M483.93,113.52s16.32,2.3,46.26,15.34c29.94,13.04,52.03,30.81,52.03,30.81,0,0-5.35-2.35-10.02,3.5s-23.12-20.11-23.12-20.11c0,0-10.83,2.93-16.53.45-5.7-2.48-48.63-29.99-48.63-29.99Z"/>
      <path class="cls-15" d="M606.19,157.19s7.25,4.75,14.61,11.28c7.78,6.91,12.99,13.61,12.99,13.61,0,0,4.73-8.07,2.13-14.29-2.6-6.21-11.25-5.59-11.25-5.59,1.95-5.43,3.26-18.15,2.94-27.86,0,0-2.05,11.18-8.64,17.25-4.51,4.15-12.77,5.6-12.77,5.6Z"/>
    </g>
    <g>
      <path class="cls-9" d="M219.27,95.69c1.19.13,2.2,1.02,2.45,2.25.31,1.53-.69,3.02-2.21,3.32-.59.12-59.6,12.11-100.93,35.85-56.29,32.32-76.75,67.66-76.95,68.01-.77,1.36-2.49,1.83-3.85,1.07-1.36-.77-1.84-2.49-1.07-3.84.84-1.49,21.3-36.97,79.06-70.13,42.15-24.2,102.04-36.37,102.64-36.49.3-.06.59-.07.87-.04Z"/>
      <path class="cls-32" d="M78.31,100.59c9.77,1.1,17.5,9.29,17.76,19.38.11,4.43-1.5,8.64-4.55,11.86-3.05,3.21-7.17,5.05-11.6,5.16-3.69.09-7.21-1.25-9.88-3.8-2.68-2.55-4.21-5.98-4.3-9.68-.08-3.11,1.05-6.06,3.19-8.31,2.14-2.25,5.03-3.54,8.14-3.62,1.58-.03-4.85,2.5-5.68,11.78-.19,2.18.96,4.22,2.55,5.73,1.59,1.51,3.68,2.3,5.85,2.25,2.92-.08,5.64-1.28,7.65-3.4,2.01-2.12,3.08-4.9,3-7.82-.21-7.92-6.81-14.2-14.76-14-10.3.27-18.46,8.87-18.19,19.17.14,5.44,1.53,12.95,7.33,17.84,5.77,4.87,14.88,6.45,27.07,4.7,1.54-.21,2.97.85,3.2,2.39.22,1.54-.85,2.98-2.39,3.2-13.86,1.98-24.47-.01-31.52-5.97-5.86-4.95-9.09-12.56-9.33-22.01-.35-13.42,10.28-24.61,23.69-24.96.94-.02,1.87.02,2.79.12Z"/>
      <path class="cls-11" d="M71.83,165.63c.25.03.49.09.74.19,1.45.58,2.15,2.22,1.57,3.67-3.13,7.8-3.58,14.04-1.32,18.57,2.24,4.49,6.9,6.57,10.42,7.53,3.16.85,6.47.43,9.32-1.2,2.85-1.63,4.89-4.27,5.75-7.44.65-2.39.33-4.88-.91-7.03-1.23-2.15-3.22-3.68-5.61-4.33-1.78-.48-3.61-.24-5.2.67-1.59.91-2.72,2.38-3.2,4.15-.34,1.27-.11,2.55.48,3.73,4.02,8.05,12.96-.1,12.55,1.41-.63,2.32-2.13,4.26-4.22,5.46-2.09,1.2-4.5,1.52-6.84.88-2.72-.74-4.99-2.49-6.39-4.94-1.4-2.45-1.77-5.29-1.03-8.01.87-3.22,2.95-5.91,5.84-7.57,2.9-1.66,6.29-2.1,9.48-1.22,7.93,2.15,12.64,10.35,10.48,18.29-1.25,4.62-4.23,8.48-8.39,10.86-4.15,2.38-8.99,2.99-13.61,1.75-6.65-1.8-11.49-5.42-14-10.46-3-6.02-2.62-13.83,1.14-23.18.48-1.21,1.7-1.89,2.94-1.75Z"/>
      <path class="cls-7" d="M209.41,94.57s-39.34,7.76-66.69,19.5c-26.82,11.51-54.02,29.62-54.02,29.62,0,0,10.62-8.74,11.35-22.5.79-14.74-11.69-21.59-11.69-21.59,0,0,33.87-1.54,39.32,12.77,8.08-10.89,41.72-22.33,81.73-17.79Z"/>
      <g>
        <path class="cls-23" d="M18.34,216.84c-2.15,1.93-6.79,1.2-6.79,1.2,0,0,11.27,13.04,16.99,3.91-5.72,9.14,10.94,13.57,10.94,13.57,0,0-2.68-3.86-1.89-6.63.79-2.77,7.63-6.76,13.65-13.63,5.29-6.04,7.18-16.94-3.67-23.72-10.85-6.79-19.82-.33-22.94,7.08-3.55,8.41-4.14,16.31-6.29,18.23Z"/>
        <path class="cls-13" d="M17.64,229.15c1.59-2.53,4.92-3.3,7.46-1.72s3.3,4.92,1.72,7.46c-1.59,2.53-12.58,9.9-12.58,9.9,0,0,1.81-13.1,3.4-15.64Z"/>
      </g>
      <g>
        <path class="cls-18" d="M17.17,150.1c-1.83-.14-3.54-2.59-3.54-2.59,0,0-1.04,10.91,5.67,9.51-6.71,1.39-1.42,10.99-1.42,10.99,0,0,.59-2.93,2.21-3.78,1.62-.86,6.46.53,12.25.28,5.1-.23,10.93-4.15,9.28-12.11-1.65-7.96-8.56-9.24-13.33-7.42-5.42,2.07-9.3,5.27-11.13,5.13Z"/>
        <path class="cls-35" d="M11.21,155.19c1.86-.39,3.68.81,4.07,2.67s-.81,3.68-2.67,4.07c-1.86.39-10.07-1.42-10.07-1.42,0,0,6.81-4.93,8.67-5.31Z"/>
      </g>
      <g>
        <path class="cls-8" d="M61.94,216.77c-.67,1.22-2.9,1.64-2.9,1.64,0,0,7.24,4.13,8.37-.96-1.13,5.09,7.17,4.42,7.17,4.42,0,0-1.84-1.33-1.93-2.72-.09-1.39,2.39-4.31,4.02-8.41,1.44-3.61.54-8.88-5.49-10.22-6.04-1.35-9.09,3.04-9.32,6.92-.26,4.41.74,8.1.07,9.32Z"/>
        <path class="cls-14" d="M63.6,222.5c.31-1.41,1.71-2.3,3.12-1.98,1.41.31,2.3,1.71,1.98,3.12s-4.14,6.54-4.14,6.54c0,0-1.28-6.26-.97-7.67Z"/>
      </g>
      <path class="cls-10" d="M192.39,113.52s-16.32,2.3-46.26,15.34c-29.94,13.04-52.03,30.81-52.03,30.81,0,0,5.35-2.35,10.02,3.5s23.12-20.11,23.12-20.11c0,0,10.83,2.93,16.53.45s48.63-29.99,48.63-29.99Z"/>
      <path class="cls-26" d="M70.13,157.19s-7.25,4.75-14.61,11.28c-7.78,6.91-12.99,13.61-12.99,13.61,0,0-4.73-8.07-2.13-14.29s11.25-5.59,11.25-5.59c-1.95-5.43-3.26-18.15-2.94-27.86,0,0,2.05,11.18,8.64,17.25,4.51,4.15,12.77,5.6,12.77,5.6Z"/>
    </g>
  </g>
  <path class="cls-28" d="M182.02,365.17c2.58,3.2,2.69,3.1.32-.32-6.42-10.11-11.73-20.74-15.94-31.89-3.32-8.8-13.06-32.08-10.01-40.68,1.8-5.09,4.5.39,5.32,2.24,8.08,18.23,16.69,36.22,25.82,53.95,3.87,7.51,8.25,14.71,13.14,21.59.07.1.21.14.29.09.02-.01.04-.03.05-.06l.08-.11c.04-.07.04-.16,0-.24-8.59-17.91-16.22-37.6-19.3-56.99-.31-1.94-.13-3.94.55-5.99.52-1.61,2.37-2.01,2.97-.24,5.56,16.27,11.35,33.07,19.45,48.27.34.79.72,1.58,1.14,2.35.4.74,1.04.28.6-.37-.47-.7-.87-1.45-1.19-2.25-2.93-6.46-10.19-24.99-3.39-30.69,1.31-1.09,2.33-.87,3.05.68,10.57,22.57,19.3,43.36,40.27,58.59,20.38,14.8,43.28,24.04,68.69,27.71,2.37.34,4.39.47,6.05.37.34-.02.66-.18.9-.45,2.9-3.28,6.49-5.33,10.78-6.15.32-.06.56-.32.59-.63l.83-9.28c.03-.34-.04-.71-.21-1.05-3.11-6.42-3.59-16.55,3.23-21.11.28-.19.45-.51.43-.84l-.72-13.53c-.02-.33-.16-.67-.39-.96-3.3-4.02,2.46-9.69,4.57-4.81.13.31.17.66.09,1.03-1.24,5.83-1.62,11.7-1.14,17.61.02.31.27.57.59.61,3.23.44,5.54,2.37,6.95,5.81,2.64,6.43,2.53,12.46-.33,18.1-.16.31-.22.66-.19,1.02l.82,7.82c.04.35.24.65.54.78,4.42,1.94,7.37,2.61,11.06,6.87.24.27.58.42.92.42,1.75-.05,4.11-.43,7.07-1.15,24.56-5.92,46.99-17.01,65.85-33.28,19.4-16.74,28.1-37.19,36.85-60.87.85-2.27,2.82-4.69,4.79-1.27,4.73,8.2.16,22.41-3.39,30.59-.26.6.24,1.1.61.27,7.26-16.2,12.51-33.38,17.17-50.62.46-1.7,1.37-1.98,2.72-.86,1.51,1.26,1.05,8.99.73,10.92-3.16,19.09-8.59,37.52-16.29,55.29-.12.29-.09.43.11.43.14,0,.28-.11.38-.28,4.67-7.57,8.55-14.87,11.64-21.88,9.77-22.14,17.47-55.22,27.81-51.08-4.6,16.6-13.04,51.16-21.48,66.16-.07.14-.12.28-.14.43-.2,1.71.75-.48.86-.66,11.65-17.64,22.14-30.43,34.19-52.5.6-1.1,3.19-3.63,4.14-3.1.28.16.93.66,1.03,1.03,2.2,7.94-2.3,12.81-5.91,20.38-6.49,13.65-13.51,27.03-21.07,40.14-.17.31-.13.34.13.08,14.25-13.94,26.39-31.4,38.2-47.46,1.62-2.22,3-2.25,4.13-.09.16.3.2.67.12,1.03-2.1,9.94-8.2,21.28-13.29,29.09-8.9,13.67-18.78,25.8-29.64,36.41-.16.16-.26.3-.31.43-.15.38,0,.44.45.2,17.38-10.05,30.67-21.5,44.65-34.19.96-.88,2-1.68,3.1-2.4.65-.42,1.51-.23,1.93.41.12.19.2.41.22.63.54,6.17-5.6,16.5-9.3,21.31-11.57,15.05-31.62,22.35-48.08,31.32-.32.17-.3.23.05.15,13.93-2.76,26.17-7.39,39.07-12.35,2.46-.95,3.47-.12,3.01,2.48-3.23,18.57-28.14,21.06-43.75,21.68-.15,0-.27.09-.27.18,0,0,0,0,0,.01.15,1.64,27.8.25,30.61-.03,2.23-.23,2.79.51,1.67,2.21-13.81,21.02-35.63,15.82-56.32,9.59-.94-.28-1.02-.13-.24.46,7.09,5.37,14.35,10.5,21.77,15.39,8.37,5.52,7.12,15.89-4.65,13.22-3.96-.9-7.77-2.21-11.44-3.91-.33-.15-.38-.09-.15.19,2.3,2.89,6.3,7.39,6.88,10.76.44,2.57-.6,3.56-3.15,2.97-7.08-1.65-13.28-4.9-18.61-9.78-.26-.24-.31-.2-.15.12,1.15,2.25,12.97,22.35,1.45,17.51-4.88-2.05-9.26-8.77-11.55-13.35-.1-.2-.25-.33-.37-.32-.83.05,5.01,22.1-1.38,23.76-.32.08-.68.03-1-.15-3.88-2.17-7.1-5.07-9.67-8.71-.2-.28-.26-.25-.2.09,1.1,5.76,1.63,9.23,1.59,10.42-.28,8-10.19.15-12.59-2.1-.25-.23-.35-.18-.29.16l.66,4.46c.05.34-.11.67-.4.84-3.87,2.34-11.09-4.11-13.71-7.15-.26-.31-.41-.27-.45.12l-.68,6.68c-.18,1.81-1.39,2.07-3.64.8-1.19-.67-2.13-1.6-2.81-2.79-.15-.27-.46-.38-.69-.25-.02.01-.04.02-.05.03-.28.22-.44.51-.5.87-.08.46-.2.81-.35.96-4.09,4.4-13.05-13.8-13.82-16.35-.05-.16-.22-.25-.39-.2-.05.02-.1.04-.14.08-1.73,1.7-3.77,2.61-6.13,2.71-.35.02-.7-.07-.99-.27-2.79-1.86-4.53-4.41-5.21-7.66-.05-.26-.31-.43-.58-.37-.02,0-.03,0-.05.01-3.27.92-6.11.11-8.53-2.44-1.31-1.37-1.07.24-.78.79,7.53,13.82,18.27,26.09,28.02,38.39,10.39,13.11,10.06,22.41,3.82,37.5-.47,1.16-.84,2.73-1.11,4.73-.61,4.48-3.2,7.65-7.75,9.52-.6.25-1,.82-1.03,1.46-.23,5.16-1.71,11.92-7.33,13.8-.32.12-.57.38-.68.7-.87,2.83-2.24,5.38-4.09,7.65-.21.25-.26.61-.13.92,4.5,10.39,9.83,23.43,5.3,36.25-1.22,3.44-3.53,4.69-6.91,3.72-.2-.05-.41.06-.47.26-.01.04-.02.08-.01.12.34,3.88.88,12.53-4.38,13.56-.39.08-.73.23-.96.45-3.89,3.64-5.21,7.79-11.58,4.09-.25-.15-.58-.07-.72.17,0,0,0,.01,0,.02-2.8,5.22-5,9.26-11.92,7.33-.78-.22-1.62-1.04-2.6-1.15-.3-.03-.63.13-.85.43-2.17,2.86-4.81,3.23-7.92,1.1-.26-.18-.61-.15-.84.05-1.63,1.47-3.27,3.25-5.36,3.71-5.66,1.21-8.3-4.28-8.76-8.91-.07-.76-.42-.91-1.03-.44-4.74,3.71-8.42,2.92-11.05-2.35-.14-.29-.45-.45-.76-.4-11.99,1.94-7.68-10.09-5.68-16.48.09-.27-.01-.35-.31-.25l-4.99,1.69c-.29.1-.66,0-.97-.27-6.35-5.43-2.13-27.98.09-34.78.1-.32.05-.67-.15-.94-2.51-3.38-4.1-7.15-4.77-11.32-.05-.32-.3-.57-.62-.63-7.11-1.52-7.46-6.39-8.68-12.22-.07-.31-.31-.58-.63-.7-9.03-3.34-8.29-10.29-7.17-18.42.05-.36,0-.72-.16-1.05-5.89-12.65-2.24-20.94,3.37-32.23,1.96-3.96,3.55-6.76,4.76-8.41,7.65-10.42,14.56-21.31,20.71-32.67.19-.34.24-.71.14-1-.23-.72-.74-1.14-1.52-1.27-.29-.05-.58.17-.66.5-.95,4.55-5.83,13.15-11.37,6.79-.7-.8-1.18-.68-1.43.35-1.67,6.81-5.24,12.64-10.7,17.51-.51.46-1.41.27-2.01-.42-.03-.03-.05-.06-.08-.09l-.92-1.18c-.16-.2-.46-.22-.68-.04-.03.02-.05.05-.07.07-6.97,8.16-6.31.46-7.43-4.5-.07-.35-.21-.37-.42-.08-2.41,3.69-5.55,6.52-9.43,8.48-5.59,2.83-4.27-1.97-3.9-5.05.04-.39-.07-.44-.34-.14-2.74,3.07-6.02,5.28-9.84,6.63-.33.12-.69.05-.95-.16-1.48-1.27-2.06-2.94-1.75-4.99.44-2.91.88-5.83,1.3-8.77.05-.36-.02-.39-.22-.09-2.16,3.2-4.69,5.99-7.61,8.39-9.6,7.86-4.92-21.19-5.29-21.69-.2-.27-.39-.18-.59.26-2.39,5.55-7,12.9-12.97,15.14-1.52.58-2.38.1-2.57-1.42-.71-5.77,3.11-12.32,5.47-17.51.15-.33.11-.36-.13-.1-4.74,5.11-13.16,10.93-19.64,11.56-2.13.2-2.8-.69-2.02-2.65,1.65-4.13,3.83-7.95,6.55-11.47.22-.28.17-.34-.13-.16-3.66,2-7.43,3.66-11.32,4.98-11.16,3.78-13.37-6.44-5.82-12.33,7.29-5.68,14.37-11.55,21.24-17.61.91-.8.8-.97-.32-.51-18.62,7.56-41.39,15.48-56.31-4.41-1.3-1.72-.87-2.57,1.29-2.56,9.6.08,19.21-.67,28.81-2.24.46-.07.48-.19.07-.35-.32-.12-.71-.19-1.17-.2-12.92-.21-24.87.45-35.51-7.02-2.61-1.82-13.07-16.07-1.61-12.89,12.34,3.43,23.65,7.14,37.29,8.1.37.02.39-.04.05-.17-23.32-10.02-52.45-17.56-59.89-45.74-.49-1.84.08-2.78,1.7-2.82.32,0,.66.11.98.33,5.31,3.71,10.51,7.54,15.61,11.5,10.46,8.13,21.44,14.89,32.94,20.29,1.51.72,1.64.53.37-.57-18.89-16.35-35.86-35.35-45.56-58.68-2.11-5.07.58-7.41,4.6-2.69,14.54,17.03,26.02,30.42,40.17,43.41.1.09.2.33.25-.02.01-.05,0-.13-.05-.2-7.38-10.8-15.08-23.51-23.12-38.13-3.38-6.14-6.78-12.55-7.45-19.05-.2-1.89-.29-12.45,3.96-5.61,11.72,18.85,24.34,37.07,37.86,54.67Z"/>
  <path class="cls-34" d="M652.69,539.57c-8.57,2.78-14.88,7.22-18.45,11.77,0,0,1.44-7.81,2.87-15.63.95-7.88,1.59-15.8,1.59-15.8.37,1.03.69,1.6.69,1.6,0,0,3.04,3.8,9.63,4.64,5.62.73,14.49-5.76,20.49-19.96,4.91-13.09,6.8-25.26,6.8-25.26,0,0-9.45,2.29-20.19,7.7-7.98,4.02-13.45,9.35-16.19,14.4,0,0,.09-7.94.19-15.88.02-1.98.05-3.97.07-5.83-.12-1.86-.22-3.59-.32-5.07-.19-2.97-.31-4.95-.31-4.95.53.97.93,1.48.93,1.48,0,0,3.6,3.31,10.24,3.17,5.76-.12,13.23-7.76,17.37-22.6,3.01-13.54,3.19-25.72,3.19-25.72,0,0-9.05,3.52-18.93,10.32-7.34,5.05-12,11.08-14,16.46,0,0-1.03-7.87-2.07-15.74-.45-3.95-1.08-7.86-1.72-10.77-.57-2.92-.95-4.87-.95-4.87.65.89,1.12,1.34,1.12,1.34,0,0,3.99,2.8,10.55,1.77,5.63-.87,12.24-9.48,14.19-24.55.7-6.88.75-13.36.62-18.09-.13-4.74-.67-7.67-.67-7.67,0,0-8.38,4.54-17.33,12.51-6.69,5.93-10.6,12.51-11.95,18.12,0,0-.59-2.36-1.49-5.89-.96-3.51-1.93-8.28-3.42-12.91-1.42-4.64-2.84-9.29-3.91-12.77-1.01-3.5-1.93-5.76-1.93-5.76,1.44-1.17,3.52-3.39,5.04-7.4,2.3-5.85-.77-17.55-10.68-28.24-9.09-9.9-18.32-15.14-18.32-15.14,0,0-.42,10.48.5,23.14,1.07,13.69,5.81,23.43,11.15,26.43,3.67,2.01,6.69,2.46,8.56,2.49,0,0,.46,1.29,1.15,3.23.6,1.97,1.41,4.59,2.21,7.21,1.61,5.25,3.21,10.49,3.21,10.49-4.08-4.16-10.8-7.65-19.41-8.66-11.54-1.37-21.07.27-21.07.27,0,0,1.29,2.12,3.34,5.49,2.07,3.35,5.26,7.83,9.04,12.58,7.84,10.33,17.29,15.12,22.8,13.82,6.52-1.54,8.96-5.61,8.96-5.61,0,0,.23-.59.45-1.65l1.16,4.77c.56,2.89,1.31,6.74,2.06,10.6.75,3.85,1.49,7.71,2.05,10.6.38,2.92.64,4.87.64,4.87-3.18-4.69-9.69-8.93-18.14-10.98-11.42-2.74-20.95-2.29-20.95-2.29,0,0,.9,2.29,2.65,5.83,1.77,3.55,4.44,8.35,7.35,13.52,3.31,5.58,7.15,9.83,10.89,12.64,3.74,2.81,7.08,4.18,10,3.87,6.6-.67,9.75-4.41,9.75-4.41,0,0,.3-.55.64-1.58,0,0,.29,1.94.42,4.88.19,2.94.43,6.85.68,10.77.25,3.92.49,7.83.67,10.77-.03,2.94-.06,4.9-.06,4.9-2.45-5.07-8.42-10.15-16.52-13.28-10.98-4.21-20.48-4.99-20.48-4.99,0,0,.59,2.36,1.87,6.06,1.29,3.71,3.36,8.78,5.47,14.24,4.93,11.81,12.88,18.93,18.48,19.15,6.72.28,10.12-2.98,10.12-2.98,0,0,.38-.51.86-1.47,0,0,.04,1.96-.12,4.9-.28,2.93-.64,6.83-1.01,10.74-.37,3.91-.73,7.81-1.01,10.74-.29,2.93-.49,4.88-.49,4.88-2.12-5.44-7.04-11.31-14.61-15.56-10.2-5.73-19.47-7.84-19.47-7.84,0,0,.22,2.39.91,6.19.6,3.79,2.04,9.08,3.51,14.79,2.89,12.27,9.45,20.46,15.1,21.59,6.5,1.29,10.44-1.39,10.44-1.39,0,0,.46-.44,1.1-1.31,0,0-.35,1.93-.89,4.82-.5,2.9-1.18,6.76-2.39,10.5-2.14,7.54-4.29,15.09-4.29,15.09-1.17-5.69-4.94-12.21-11.66-17.56-4.52-3.61-8.99-6.26-12.32-8.03-3.31-1.76-5.57-2.67-5.57-2.67,0,0,0,.61-.07,1.67-.06,1.06-.12,2.6-.13,4.51-.02,3.81.17,9.09.96,15.02,1.06,6.49,2.25,11.77,4.23,15.83,1.97,4.06,4.55,6.84,7.26,7.83,6.22,2.32,10.64.33,10.64.33,0,0,.54-.35,1.34-1.11,0,0-2.88,7.29-5.76,14.59-1.41,3.66-2.85,7.31-4.26,9.88-1.31,2.63-2.18,4.38-2.18,4.38-.08-5.75-2.69-12.68-8.83-19.21-8.07-8.67-16.29-13.56-16.29-13.56,0,0-.45,2.35-.84,6.22-.26,4.02-1.01,8.91-1.23,14.66-.65,12.29,2.44,21.98,7.41,25.04,5.68,3.51,10.26,2.33,10.26,2.33,0,0,.58-.25,1.47-.86,0,0-.99,1.69-2.48,4.21-1.64,2.43-3.84,5.67-6.03,8.91-2.1,3.31-4.64,6.29-6.4,8.64-1.8,2.32-3,3.87-3,3.87.99-5.75.04-13.05-4.52-20.52-6.12-10.04-13.23-16.37-13.23-16.37,0,0-.88,2.09-1.99,5.62-1.13,3.52-2.94,8.2-4.25,13.88-1.76,5.89-2.28,11.42-1.89,15.99.27,4.45,1.56,8.01,3.65,9.99,4.79,4.58,9.64,4.51,9.64,4.51,0,0,.64-.11,1.67-.49,0,0-1.38,1.39-3.45,3.47-2.1,2.05-4.74,4.95-7.66,7.56-2.91,2.62-5.82,5.24-8,7.21-2.22,1.92-3.78,3.11-3.78,3.11,2.35-5.17,2.51-12.96-.24-21.05-1.87-5.49-4.23-10.14-6.17-13.48-1.92-3.32-3.31-5.26-3.31-5.26,0,0-1.25,1.97-3.23,5.11-2,3.14-4.43,7.78-7.19,12.86-2.81,5.68-4.53,10.96-5.12,15.46-.56,4.53.06,8.3,1.75,10.64,3.86,5.39,8.58,6.14,8.58,6.14,0,0,.64,0,1.71-.2,0,0-1.59,1.15-3.96,2.88-2.38,1.72-5.71,3.79-8.97,5.97-3.23,2.22-6.66,4.14-9.18,5.66-2.53,1.5-4.21,2.51-4.21,2.51,3.03-4.98,4.85-12.17,3.5-20.84-1.78-11.62-5.85-20.24-5.85-20.24,0,0-1.7,1.65-4.22,4.55-2.51,2.91-6.08,6.79-9.59,11.63-7.82,10.16-10.47,20.09-7.87,25.25,2.97,5.93,7.55,7.46,7.55,7.46,0,0,.63.1,1.73.09,0,0-1.76.86-4.4,2.16-2.63,1.33-6.17,3.02-9.78,4.57-7.12,3.3-14.46,6.12-14.46,6.12,3.75-4.39,6.55-11.37,6.56-20.14.05-11.72-2.59-20.88-2.59-20.88,0,0-2.01,1.38-5.04,3.87-2.99,2.55-7.17,5.97-11.45,10.25-9.35,9.09-13.3,18.63-11.4,24.07,2.18,6.26,6.53,8.38,6.53,8.38,0,0,.62.19,1.7.32l-4.66,1.56c-2.79.96-6.52,2.18-10.29,3.29-3.75,1.17-7.52,2.27-10.37,3.02-2.84.78-4.73,1.31-4.73,1.31,4.24-3.96,7.87-10.52,9-19.23,1.54-11.64.13-21.08.13-21.08,0,0-8.71,4.68-18.4,12.1-10.49,7.98-15.5,17-14.21,22.66,1.48,6.49,5.54,9.03,5.54,9.03,0,0,.59.25,1.65.49,0,0-14.88,3.39-29.96,5.7-7.54,1.15-15.11,2.08-20.79,2.64-3.53.36-6.33.58-7.94.69h-7.35c-1.61-.11-4.41-.33-7.94-.69-5.68-.56-13.25-1.49-20.79-2.64-15.08-2.31-29.96-5.7-29.96-5.7,1.06-.24,1.65-.49,1.65-.49,0,0,4.07-2.54,5.54-9.03,1.29-5.66-3.72-14.68-14.21-22.66-9.68-7.42-18.4-12.1-18.4-12.1,0,0-1.41,9.43.13,21.08,1.13,8.7,4.77,15.27,9,19.23,0,0-1.89-.52-4.73-1.31-2.85-.75-6.62-1.85-10.37-3.02-3.77-1.11-7.5-2.33-10.29-3.29-2.79-.94-4.65-1.56-4.65-1.56,1.09-.13,1.7-.32,1.7-.32,0,0,4.34-2.12,6.53-8.38,1.9-5.45-2.05-14.98-11.4-24.07-4.28-4.28-8.46-7.69-11.46-10.25-3.03-2.49-5.04-3.87-5.04-3.87,0,0-2.64,9.15-2.59,20.88.01,8.77,2.81,15.75,6.56,20.14,0,0-7.33-2.82-14.46-6.12-3.61-1.55-7.15-3.24-9.78-4.57-2.64-1.29-4.4-2.16-4.4-2.16,1.09.01,1.73-.09,1.73-.09,0,0,4.57-1.53,7.55-7.46,2.59-5.16-.05-15.09-7.87-25.25-3.5-4.84-7.08-8.73-9.59-11.63-2.51-2.9-4.22-4.55-4.22-4.55,0,0-4.07,8.62-5.85,20.24-1.34,8.67.48,15.86,3.5,20.84l-4.21-2.51c-2.52-1.52-5.94-3.44-9.18-5.66-3.26-2.18-6.59-4.25-8.97-5.97-2.38-1.73-3.96-2.88-3.96-2.88,1.07.2,1.7.2,1.7.2,0,0,4.72-.75,8.58-6.14,1.69-2.34,2.31-6.11,1.75-10.64-.58-4.5-2.31-9.77-5.12-15.46-2.76-5.08-5.19-9.72-7.19-12.86-1.98-3.14-3.23-5.11-3.23-5.11,0,0-1.4,1.94-3.31,5.26-1.94,3.35-4.3,7.99-6.17,13.48-2.75,8.09-2.59,15.88-.24,21.05,0,0-1.55-1.19-3.78-3.11-2.18-1.97-5.09-4.59-8-7.21-2.92-2.61-5.56-5.51-7.66-7.56-2.07-2.08-3.45-3.47-3.45-3.47,1.03.38,1.67.49,1.67.49,0,0,4.85.08,9.64-4.51,2.09-1.98,3.38-5.54,3.65-9.99.39-4.57-.13-10.1-1.89-15.99-1.31-5.68-3.12-10.35-4.25-13.88-1.11-3.53-1.99-5.62-1.99-5.62,0,0-7.11,6.32-13.23,16.37-4.56,7.48-5.51,14.77-4.52,20.52,0,0-1.2-1.55-3-3.87-1.76-2.35-4.31-5.33-6.4-8.64-2.19-3.24-4.38-6.48-6.03-8.91-1.49-2.53-2.48-4.21-2.48-4.21.89.6,1.47.86,1.47.86,0,0,4.58,1.18,10.26-2.33,4.97-3.07,8.06-12.75,7.41-25.04-.22-5.75-.97-10.64-1.23-14.66-.39-3.86-.84-6.22-.84-6.22,0,0-8.22,4.89-16.29,13.56-6.14,6.53-8.75,13.46-8.83,19.21,0,0-.87-1.75-2.18-4.38-1.42-2.57-2.85-6.22-4.26-9.88-2.88-7.29-5.76-14.59-5.76-14.59.8.75,1.34,1.11,1.34,1.11,0,0,4.42,1.98,10.64-.33,2.71-1,5.28-3.77,7.26-7.83,1.97-4.06,3.17-9.34,4.23-15.83.79-5.93.98-11.21.96-15.02,0-1.91-.07-3.45-.13-4.51-.08-1.06-.07-1.67-.07-1.67,0,0-2.26.91-5.57,2.67-3.33,1.77-7.8,4.42-12.32,8.03-6.72,5.35-10.49,11.86-11.66,17.56,0,0-2.14-7.54-4.29-15.09-1.21-3.74-1.89-7.6-2.39-10.5-.53-2.89-.89-4.82-.89-4.82.64.88,1.1,1.31,1.1,1.31,0,0,3.94,2.69,10.44,1.39,5.65-1.13,12.21-9.31,15.1-21.59,1.47-5.71,2.91-10.99,3.51-14.79.69-3.8.91-6.19.91-6.19,0,0-9.27,2.11-19.47,7.84-7.56,4.26-12.49,10.12-14.61,15.56,0,0-.2-1.95-.49-4.88-.27-2.93-.64-6.83-1.01-10.74-.37-3.9-.73-7.81-1.01-10.74-.16-2.94-.12-4.9-.12-4.9.48.96.86,1.47.86,1.47,0,0,3.4,3.27,10.12,2.98,5.6-.23,13.56-7.34,18.48-19.15,2.11-5.46,4.18-10.53,5.47-14.24,1.28-3.71,1.87-6.06,1.87-6.06,0,0-9.5.78-20.48,4.99-8.1,3.13-14.07,8.2-16.52,13.28,0,0-.02-1.96-.06-4.9.18-2.94.43-6.85.68-10.77.25-3.92.49-7.83.68-10.77.13-2.94.42-4.88.42-4.88.34,1.02.64,1.58.64,1.58,0,0,3.15,3.74,9.75,4.41,2.92.3,6.26-1.07,10-3.87,3.74-2.81,7.59-7.06,10.89-12.64,2.91-5.17,5.59-9.97,7.35-13.52,1.75-3.54,2.65-5.83,2.65-5.83,0,0-9.52-.45-20.95,2.29-8.45,2.04-14.96,6.29-18.14,10.98,0,0,.26-1.95.64-4.87.56-2.89,1.31-6.75,2.05-10.6.75-3.85,1.5-7.71,2.06-10.6l1.16-4.77c.21,1.06.45,1.65.45,1.65,0,0,2.45,4.07,8.96,5.61,5.51,1.3,14.96-3.49,22.8-13.82,3.77-4.74,6.97-9.22,9.04-12.58,2.05-3.37,3.34-5.49,3.34-5.49,0,0-9.52-1.64-21.07-.27-8.61,1.01-15.33,4.5-19.41,8.66,0,0,1.61-5.25,3.21-10.49.8-2.62,1.61-5.25,2.21-7.21.69-1.94,1.15-3.23,1.15-3.23,1.87-.03,4.89-.48,8.56-2.49,5.35-3,10.09-12.74,11.15-26.43.93-12.66.5-23.14.5-23.14,0,0-9.23,5.24-18.32,15.14-9.91,10.7-12.97,22.39-10.68,28.24,1.52,4.02,3.6,6.23,5.04,7.4,0,0-.92,2.25-1.93,5.76-1.07,3.48-2.49,8.13-3.91,12.77-1.48,4.63-2.46,9.4-3.42,12.91-.89,3.53-1.49,5.89-1.49,5.89-1.35-5.61-5.26-12.19-11.95-18.12-8.95-7.97-17.33-12.51-17.33-12.51,0,0-.53,2.93-.67,7.67-.13,4.74-.09,11.21.62,18.09,1.95,15.07,8.56,23.68,14.19,24.55,6.56,1.03,10.55-1.77,10.55-1.77,0,0,.47-.45,1.12-1.34,0,0-.38,1.95-.95,4.87-.64,2.91-1.28,6.82-1.72,10.77-1.03,7.87-2.07,15.74-2.07,15.74-2-5.38-6.66-11.41-14-16.46-9.88-6.8-18.93-10.32-18.93-10.32,0,0,.17,12.18,3.19,25.72,4.14,14.84,11.61,22.48,17.37,22.6,6.64.14,10.24-3.17,10.24-3.17,0,0,.4-.51.93-1.48,0,0-.12,1.98-.31,4.95-.09,1.49-.2,3.22-.32,5.07.02,1.86.04,3.85.07,5.83.09,7.94.19,15.88.19,15.88-2.74-5.05-8.21-10.38-16.19-14.4-10.75-5.41-20.2-7.7-20.2-7.7,0,0,1.89,12.17,6.8,25.26,5.99,14.21,14.86,20.7,20.49,19.96,6.58-.84,9.63-4.64,9.63-4.64,0,0,.32-.56.69-1.6,0,0,.64,7.92,1.59,15.8l2.87,15.63c-3.57-4.55-9.88-8.99-18.45-11.77-5.83-1.86-10.96-3.06-14.73-3.76-3.78-.7-6.17-.91-6.17-.91,0,0,.2.73.56,2.04.33,1.31.94,3.18,1.92,5.42,1.86,4.49,4.62,10.52,8.15,16.63,1.91,3.31,3.92,6.13,5.93,8.46,2.12,2.31,4.43,4.09,6.51,5.44,4.22,2.68,8.01,3.53,10.78,2.73,6.37-1.86,8.69-6.07,8.69-6.07,0,0,.21-.6.4-1.68,0,0,2.17,7.64,4.34,15.29,1.14,3.8,2.01,7.7,3.26,10.41,1.09,2.77,1.82,4.62,1.82,4.62-2.21-1.94-5.09-3.73-8.54-5.21-3.27-1.54-7.06-2.8-11.4-3.52-11.68-1.98-21.31-1.36-21.31-1.36,0,0,1.26,2.81,3.56,7.04,1.19,2.1,2.46,4.62,4.28,7.19,1.89,2.55,4.02,5.27,6.35,7.97,10.13,11.75,20.08,15.35,25.29,12.87,5.99-2.85,7.81-7.46,7.81-7.46,0,0,.15-.64.21-1.75,0,0,.73,1.85,1.83,4.62,1.15,2.75,3.05,6.26,4.78,9.84.89,1.78,1.78,3.56,2.61,5.23.94,1.61,1.82,3.12,2.57,4.41,1.51,2.58,2.51,4.3,2.51,4.3-4.87-3.09-12.49-5.1-21.23-5.18-11.95-.01-21.43,2.1-21.43,2.1,0,0,1.8,2.64,4.92,6.55,2.96,3.98,7.94,8.84,13.4,13.6,12.38,10.06,23.26,11.36,27.85,7.79,2.63-2.02,4.08-4.24,4.88-5.94.8-1.69,1.03-2.93,1.03-2.93,0,0,0-.66-.17-1.75,0,0,.28.41.77,1.13.47.74,1.2,1.74,2.13,2.91,1.83,2.36,4.27,5.51,6.71,8.65,5.12,6.09,10.45,12.01,10.45,12.01-5.38-2.03-13.03-2.56-21.83-.56-11.62,2.49-20.4,6.56-20.4,6.56,0,0,2.28,2.23,6.11,5.4,4.04,2.97,9.52,7,15.96,10.34,14.06,7.24,25.09,6.05,28.8,1.71,4.31-5.04,4-9.88,4-9.88,0,0-.14-.63-.57-1.64,0,0,1.48,1.33,3.69,3.33,2.2,2.01,5.15,4.68,8.3,7.12,6.09,5.12,12.59,9.71,12.59,9.71-5.8-.78-13.35.13-21.46,3.72-10.96,4.88-18.73,10.7-18.73,10.7,0,0,2.69,1.63,7.07,3.84,2.2,1.1,4.81,2.36,7.72,3.61,2.97,1.14,6.24,2.29,9.66,3.32,14.95,4.31,25.44,1.32,28.36-3.65,3.34-5.69,2.2-10.43,2.2-10.43,0,0-.25-.61-.83-1.55,0,0,1.62,1.16,4.2,2.66,2.56,1.52,5.97,3.55,9.39,5.58,3.49,1.89,6.98,3.78,9.6,5.2,2.61,1.45,4.41,2.28,4.41,2.28-5.82.11-13.08,2.19-20.49,7.25-9.9,6.66-16.47,13.68-16.47,13.68,0,0,2.83,1.21,7.43,2.62,4.66,1.26,10.96,3.07,17.99,3.79,15.16,1.9,25.12-2.84,27.23-8.05,2.49-6.15.67-10.67.67-10.67,0,0-.34-.56-1.05-1.39,0,0,7.23,3.27,14.63,6.16,7.39,2.9,14.87,5.54,14.87,5.54-5.73.8-12.68,4.01-19.24,9.97-8.82,7.96-14.28,15.93-14.28,15.93,0,0,11.75,2.96,25.67,2.72,15.09-.21,24.33-6.03,25.8-11.5,1.72-6.41-.64-10.67-.64-10.67,0,0-.4-.51-1.21-1.25,0,0,1.9.58,4.74,1.44,2.87.79,6.69,1.85,10.51,2.91,3.85.96,7.69,1.92,10.58,2.64,2.9.66,4.83,1.09,4.83,1.09-5.62,1.53-12.12,5.41-17.92,12.15-7.8,9.01-12.22,17.54-12.22,17.54,0,0,11.85,1.5,25.56-.35,14.87-1.98,23.42-8.66,24.29-14.31,1.01-6.56-1.8-10.51-1.8-10.51,0,0-.45-.46-1.34-1.1,0,0,11.02,2.13,22.15,3.56,11.12,1.53,22.35,2.29,22.35,2.29h4.78s11.24-.76,22.35-2.29c11.13-1.43,22.15-3.56,22.15-3.56-.89.64-1.34,1.1-1.34,1.1,0,0-2.82,3.96-1.8,10.51.87,5.66,9.42,12.33,24.29,14.31,13.71,1.85,25.56.35,25.56.35,0,0-4.42-8.54-12.22-17.54-5.81-6.74-12.31-10.62-17.92-12.15,0,0,1.93-.44,4.83-1.09,2.88-.72,6.73-1.68,10.58-2.64,3.82-1.06,7.64-2.11,10.51-2.91,2.84-.87,4.74-1.44,4.74-1.44-.81.74-1.21,1.25-1.21,1.25,0,0-2.36,4.26-.64,10.67,1.47,5.46,10.71,11.29,25.8,11.5,13.92.24,25.67-2.72,25.67-2.72,0,0-5.46-7.97-14.28-15.93-6.57-5.97-13.52-9.18-19.24-9.97,0,0,7.48-2.65,14.87-5.54,7.39-2.89,14.63-6.16,14.63-6.16-.72.83-1.05,1.39-1.05,1.39,0,0-1.82,4.52.67,10.67,2.12,5.21,12.07,9.95,27.23,8.05,7.03-.72,13.33-2.53,17.99-3.79,4.61-1.4,7.43-2.62,7.43-2.62,0,0-6.57-7.02-16.47-13.68-7.41-5.06-14.67-7.14-20.49-7.25,0,0,1.8-.83,4.41-2.28,2.62-1.42,6.11-3.31,9.6-5.2,3.41-2.03,6.83-4.06,9.39-5.58,2.58-1.49,4.2-2.66,4.2-2.66-.58.94-.83,1.55-.83,1.55,0,0-1.14,4.74,2.2,10.43,2.92,4.97,13.41,7.96,28.36,3.65,3.42-1.03,6.69-2.17,9.66-3.32,2.91-1.25,5.52-2.51,7.72-3.61,4.38-2.22,7.07-3.84,7.07-3.84,0,0-7.77-5.82-18.73-10.7-8.11-3.59-15.66-4.5-21.46-3.72,0,0,6.49-4.59,12.59-9.71,3.15-2.44,6.1-5.1,8.3-7.12,2.22-2,3.69-3.33,3.69-3.33-.42,1.01-.57,1.64-.57,1.64,0,0-.31,4.84,4,9.88,3.71,4.34,14.73,5.53,28.8-1.71,6.44-3.35,11.92-7.37,15.96-10.34,3.83-3.17,6.11-5.4,6.11-5.4,0,0-8.78-4.07-20.4-6.56-8.8-2-16.46-1.47-21.83.56,0,0,5.33-5.92,10.45-12.01,2.44-3.15,4.88-6.29,6.71-8.65.93-1.17,1.67-2.17,2.13-2.91.49-.72.77-1.13.77-1.13-.18,1.09-.17,1.75-.17,1.75,0,0,.22,1.23,1.03,2.93.81,1.69,2.25,3.91,4.88,5.94,4.59,3.57,15.47,2.28,27.85-7.79,5.46-4.76,10.44-9.62,13.4-13.6,3.11-3.9,4.92-6.55,4.92-6.55,0,0-9.48-2.11-21.43-2.1-8.74.08-16.36,2.09-21.23,5.18,0,0,1-1.72,2.51-4.3.75-1.29,1.63-2.79,2.57-4.41.83-1.67,1.72-3.45,2.61-5.23,1.73-3.58,3.63-7.1,4.78-9.84,1.1-2.77,1.83-4.62,1.83-4.62.06,1.11.21,1.75.21,1.75,0,0,1.82,4.61,7.81,7.46,5.2,2.48,15.16-1.11,25.29-12.87,2.33-2.7,4.46-5.42,6.35-7.97,1.82-2.57,3.09-5.09,4.28-7.19,2.3-4.23,3.56-7.04,3.56-7.04,0,0-9.64-.62-21.31,1.36-4.34.73-8.14,1.98-11.4,3.52-3.46,1.48-6.34,3.27-8.54,5.21,0,0,.73-1.85,1.82-4.62,1.25-2.72,2.12-6.61,3.26-10.41,2.17-7.64,4.34-15.29,4.34-15.29.18,1.07.4,1.68.4,1.68,0,0,2.32,4.21,8.69,6.07,2.77.8,6.56-.04,10.78-2.73,2.08-1.35,4.39-3.13,6.51-5.44,2.01-2.33,4.02-5.15,5.93-8.46,3.53-6.11,6.29-12.15,8.15-16.63.99-2.24,1.6-4.11,1.92-5.42.36-1.31.56-2.04.56-2.04,0,0-2.39.21-6.17.91-3.77.7-8.9,1.9-14.73,3.76Z"/>
  <g>
    <polygon class="cls-27" points="33.03 801.91 63.94 778.34 59.76 736.62 139.43 764.75 111.98 831.34 33.03 801.91"/>
    <polygon class="cls-25" points="643.29 801.91 612.37 778.34 616.55 736.62 536.88 764.75 564.33 831.34 643.29 801.91"/>
    <path class="cls-17" d="M92.53,782.31c159.63,61.58,331.6,61.58,491.25,0,7.08,25.9,14.17,51.79,21.26,77.69-173.46,66.91-360.31,66.91-533.77,0,7.09-25.9,14.18-51.79,21.26-77.69Z"/>
  </g>
  <g>
    <path class="cls-5" d="M124.28,860.46c-11.44-3.65-22.81-7.61-34.09-11.86.11-.3.23-.6.34-.9,2.56.97,5.1-.76,6.43-4.37,3.07-8.31,6.14-16.61,9.21-24.92,1.19-3.24-.29-5.48-2.7-6.39.11-.3.23-.6.34-.9,5.94,2.24,11.9,4.4,17.89,6.47-.1.3-.21.61-.31.91-2.44-.84-5.59-.94-6.96,2.91-3.67,10.34-7.34,20.68-11,31.01.72.25,1.44.51,2.16.76-.02.05,15.97,5.47,21.43-4.75.34.11.67.22,1.01.32-1.25,3.9-2.49,7.81-3.74,11.71Z"/>
    <path class="cls-5" d="M131.62,821.88c.09-.29.19-.57.28-.86,6.05,1.98,12.12,3.87,18.21,5.67-.09.29-.17.58-.26.87-1.2-.35-5.21-1.62-3.16,5.8,1.48,4.97,3.02,9.94,4.61,14.91,2.04-2.15,4.06-4.31,6.07-6.47.03,0,8.21-9.71-.08-12.02.09-.31.17-.62.26-.93,5.74,1.62,11.5,3.17,17.27,4.63-.08.31-.16.62-.24.93-1.53-.39-7.11-1.69-16.95,8.46-1.99,2.17-3.99,4.34-6.01,6.49-1.06,3.74-2.12,7.48-3.18,11.23-1.05,3.7,1.01,6.41,3.57,7.11-.08.31-.17.62-.26.93-6.4-1.76-12.79-3.61-19.15-5.55.09-.31.19-.61.28-.92,2.55.78,5.73-.4,6.83-4.1.83-2.81,1.67-5.61,2.5-8.42-2.07-7.17-4.02-14.35-5.86-21.53-1.23-4.9-3.32-5.76-4.75-6.23Z"/>
    <path class="cls-5" d="M182.1,876.75c-13.23-3.02-19.04-14.1-16.15-24.97,2.9-10.91,12.86-17.72,25.2-14.91,5.97,1.36,11.24,3.04,14.35,6.62-.86,2.85-1.73,5.7-2.6,8.55-.34-.07-.67-.14-1.01-.21-1.78-8.18-4.35-12.52-10.96-14.02-6.43-1.46-10.59,1.58-14.28,16.66-3.7,15.13-1,19.83,5.65,21.34,7.39,1.68,13.54-2.45,16.34-8.17.34.07.69.14,1.03.21-.31,2.96-.61,5.92-.92,8.89-5.1,1.8-10.08,1.5-16.67.01Z"/>
    <path class="cls-5" d="M237.21,886.44c-11.67-1.68-23.31-3.66-34.91-5.94.06-.31.12-.63.19-.94,2.6.51,4.13-2.2,4.85-5.98,1.52-7.96,3.04-15.91,4.56-23.87.66-3.45.46-6.89-2.1-7.39.06-.31.12-.63.19-.94,10.68,2.1,21.4,3.93,32.16,5.49-.52,3.55-1.03,7.1-1.55,10.65-.34-.05-.68-.1-1.01-.15.02-9.84-15.81-12.4-15.81-12.46-.7-.12-1.4-.25-2.11-.37-1.07,6-2.13,12.01-3.2,18.01.72.13,1.44.26,2.16.38,0,.02,9.16,1.55,10.68-4.19.34.05.68.11,1.02.16-.66,4.2-1.32,8.39-1.98,12.59-.34-.05-.69-.11-1.03-.16.3-5.9-8.84-7.43-8.84-7.44-.72-.13-1.45-.25-2.17-.38-1.09,6.13-2.18,12.27-3.27,18.4.74.13,1.48.26,2.23.39-.02.05,16.49,2.74,20.68-8.22.35.05.69.1,1.04.15-.59,4.07-1.18,8.15-1.76,12.22ZM231.92,828.02c2.02,1,4.05,2,6.08,2.99-5.03,1.66-10.1,3.27-15.22,4.81-.71-.13-1.42-.25-2.14-.38,3.8-2.44,7.56-4.91,11.27-7.41Z"/>
    <path class="cls-5" d="M277.93,891.11c-11.73-1-23.44-2.29-35.12-3.88.04-.32.09-.64.13-.95,2.61.35,3.99-2.44,4.49-6.26,1.05-8.03,2.1-16.06,3.15-24.09.45-3.48.06-6.9-2.52-7.25.04-.32.09-.64.13-.95,10.76,1.46,21.55,2.66,32.36,3.59-.31,3.57-.62,7.15-.92,10.72-.34-.03-.68-.06-1.02-.09-.56-9.82-16.48-11.45-16.48-11.51-.71-.08-1.41-.16-2.12-.25-.71,6.06-1.42,12.11-2.14,18.17.73.09,1.45.17,2.18.25,0,.02,9.22,1.01,10.4-4.81.34.03.68.07,1.02.1-.41,4.23-.83,8.46-1.24,12.68-.35-.03-.69-.07-1.04-.1-.04-5.9-9.24-6.89-9.24-6.91-.73-.08-1.45-.17-2.18-.25-.73,6.19-1.45,12.38-2.18,18.56.75.09,1.49.17,2.24.26-.02.06,16.59,1.77,20.12-9.42.35.03.7.06,1.04.09-.35,4.1-.7,8.2-1.05,12.3Z"/>
    <path class="cls-5" d="M331.56,889.46s-2.97,4.67-13.08,4.42c-12.18-.35-17-4.2-17-4.18.19-3.62.37-7.24.56-10.86.35.02.7.04,1.04.05,1.16,3.5,4.23,13.7,15.42,14.02,6.74.16,8.85-8.02,1.46-13.22-3.11-1.91-6.19-3.84-9.25-5.79-8.46-5.39-11.24-11.26-6-17.16,0-.01,3.12-4.12,12.43-3.81,10.08.29,15.15,2.99,15.16,3.01-.02,3.17-.05,6.34-.07,9.52-.34,0-.68,0-1.02,0-1.13-3.02-4.66-11.28-14.09-11.55-6.35-.21-9.05,7.16-1.4,12.25,3.03,2.02,6.09,4.03,9.17,6.01,7.92,5.06,11.38,11.15,6.67,17.31Z"/>
    <path class="cls-5" d="M374.39,891.67c.02.32.03.64.05.96-5.97.32-11.94.56-17.92.72,0-.32-.02-.64-.03-.96,4.88-.14,1.44-6.11,1.45-6.1-.66-1.36-1.32-2.72-1.97-4.08-4.87.13-9.74.21-14.62.24.02-.01-3.82,10.7,6.07,10.13,0,.32,0,.64.01.96-5.14.08-10.28.09-15.42.06,0-.32,0-.64,0-.96,1.6-.11,3.27.37,9.25-13.08,3.49-8.63,6.85-17.29,10.07-25.97.33,0,.67-.01,1-.02,5.27,11.47,10.8,22.89,16.6,34.23,2.33,4.43,3.81,3.84,5.44,3.87ZM355.58,881.25c-2.59-5.45-5.12-10.91-7.59-16.38-2.1,5.55-4.24,11.08-6.45,16.61,4.68-.03,9.36-.11,14.04-.23Z"/>
    <path class="cls-5" d="M411.75,877.85c-.5-4.56-.99-9.12-1.49-13.68-.64-5.75-3.6-13.15-9.53-12.52-.03-.32-.06-.64-.09-.96,5.95-.57,11.89-1.23,17.83-1.97.04.32.08.64.12.96-6.46.74-7.98,8.63-7.3,14.37.93,8.44,1.87,16.89,2.8,25.33-1.1.12-2.2.24-3.31.36-10.18-9.35-19.97-18.92-29.37-28.68.37,5.54.73,11.08,1.1,16.62.37,5.76,3.12,13.32,9.45,12.83.03.32.05.64.08.96-6.34.5-12.68.91-19.02,1.23-.02-.32-.03-.64-.05-.96,6.9-.36,8.89-8.24,8.51-14-.38-5.88-.76-11.76-1.14-17.64-.84-.87-1.67-1.75-2.5-2.62-4.07-4.29-5.73-3.59-7.28-3.62-.02-.32-.03-.64-.05-.96,4.82-.24,9.64-.54,14.46-.89,8.6,8.78,17.54,17.4,26.8,25.83Z"/>
    <path class="cls-5" d="M440.2,846.64c-.05-.32-.1-.63-.15-.95,6.21-.98,12.4-2.05,18.59-3.2.06.32.12.63.18.95-2.63.49-4.8,2.49-4.17,6.06,1.37,7.68,2.75,15.35,4.12,23.03,2.45,13.43-5.98,19.8-16.07,22.68-.13-.3-.26-.61-.39-.91,5.16-2.55,9.39-8.07,7.37-20.2l-2.69-16.26c-1.74-10.51-1.98-11.95-6.78-11.18Z"/>
    <path class="cls-5" d="M506.02,852.69c2.84,10.89-2.58,21.55-16.18,24.61-13.61,3.02-23.02-4.34-25.08-15.4-2.05-11.05,3.47-21.7,16.17-24.51,12.69-2.85,22.25,4.43,25.09,15.3ZM489.62,876.36c7.27-1.63,9.74-5.98,6.09-21.12-3.64-15.09-7.74-18.45-14.58-16.92-6.9,1.53-9.24,6.32-6.11,21.53,3.13,15.25,7.27,18.13,14.6,16.5Z"/>
    <path class="cls-5" d="M544.53,857.89s-1.44,5.36-11.24,8.24c-11.82,3.42-17.62,1.23-17.61,1.25-.93-3.5-1.86-7.01-2.78-10.51.34-.09.68-.18,1.02-.27,2.19,2.97,8.25,11.74,19.1,8.61,6.53-1.92,6.06-10.37-2.64-13.04-3.57-.86-7.13-1.75-10.66-2.67-9.78-2.53-14.23-7.27-11-14.49,0-.02,1.73-4.88,10.78-7.46,9.79-2.83,15.49-1.83,15.5-1.81.95,3.03,1.89,6.05,2.84,9.08-.33.1-.66.21-.99.31-2.01-2.53-7.94-9.3-17.09-6.65-6.17,1.75-6.51,9.61,2.4,12.1,3.53.99,7.08,1.96,10.66,2.89,9.17,2.37,14.37,7.1,11.71,14.42Z"/>
    <path class="cls-5" d="M584.68,848.42c-11.18,4.23-22.45,8.16-33.79,11.79-.1-.31-.2-.61-.29-.92,2.54-.81,2.58-3.93,1.39-7.59-2.51-7.7-5.03-15.4-7.54-23.1-1.09-3.34-2.93-6.25-5.43-5.45-.1-.31-.2-.61-.29-.92,10.44-3.35,20.82-6.96,31.13-10.84,1.26,3.36,2.53,6.71,3.79,10.07-.32.12-.65.24-.97.36-4.77-8.61-20.04-3.14-20.06-3.2-.68.23-1.36.47-2.04.7,1.97,5.77,3.94,11.54,5.9,17.32.7-.24,1.4-.48,2.1-.72,0,.02,8.87-3.1,7.43-8.87.33-.12.65-.24.98-.35,1.45,3.99,2.9,7.99,4.35,11.98-.33.12-.66.24-1,.36-2.59-5.3-11.43-2.19-11.44-2.21-.7.24-1.4.48-2.1.72,2.01,5.9,4.02,11.79,6.03,17.69.72-.25,1.44-.49,2.16-.74,0,.06,15.93-5.63,14.34-17.27.33-.12.66-.25,1-.38,1.45,3.85,2.91,7.7,4.36,11.55ZM551.66,799.89c2.28-.1,4.56-.22,6.84-.35-3.65,3.91-7.37,7.78-11.15,11.62-.69.24-1.38.47-2.07.7,2.18-3.98,4.31-7.97,6.38-11.97Z"/>
  </g>
</svg>