<?xml version="1.0" standalone="no"?>
<!DOCTYPE svg PUBLIC "-//W3C//DTD SVG 20010904//EN"
 "http://www.w3.org/TR/2001/REC-SVG-20010904/DTD/svg10.dtd">
<svg version="1.0" xmlns="http://www.w3.org/2000/svg"
 width="2008.000000pt" height="300.000000pt" viewBox="0 0 1408.000000 197.000000"
 preserveAspectRatio="xMidYMid meet">

<g transform="translate(0.000000,197.000000) scale(0.100000,-0.100000)"
fill="#000000" stroke="none">
<path d="M3769 1674 c-32 -69 -59 -127 -59 -130 0 -2 35 -4 78 -4 l78 0 104
113 c58 61 111 120 119 130 13 16 5 17 -123 17 l-137 0 -60 -126z"/>
<path d="M6290 1785 c-198 -45 -314 -172 -314 -345 -1 -104 23 -167 89 -239
69 -74 159 -117 364 -171 176 -46 226 -66 261 -104 55 -60 17 -172 -74 -216
-64 -31 -175 -38 -251 -15 -81 23 -147 89 -171 170 l-16 57 -76 -7 c-167 -13
-172 -14 -172 -42 0 -40 48 -172 79 -217 88 -127 206 -183 411 -193 265 -13
439 66 523 236 30 61 32 73 31 161 -1 141 -40 226 -135 296 -64 47 -137 75
-318 123 -245 66 -296 95 -296 173 0 83 109 137 252 125 106 -8 169 -56 193
-149 12 -44 11 -43 178 -32 l92 7 0 27 c0 51 -39 154 -78 205 -47 63 -115 109
-200 136 -88 28 -279 35 -372 14z"/>
<path d="M13239 1674 c-32 -69 -59 -127 -59 -130 0 -2 35 -4 78 -4 l78 0 104
113 c58 61 111 120 119 130 13 16 5 17 -123 17 l-137 0 -60 -126z"/>
<path d="M10278 1293 c-4 -533 -5 -545 -61 -587 -40 -30 -144 -30 -184 0 -38
27 -63 82 -70 150 l-6 56 -66 -6 c-196 -19 -181 -14 -181 -49 0 -58 29 -167
57 -218 58 -107 163 -167 310 -176 249 -17 417 105 452 327 7 38 11 254 11
528 l0 462 -129 0 -130 0 -3 -487z"/>
<path d="M420 1125 l0 -645 455 0 455 0 0 110 0 110 -325 0 -325 0 0 535 0
535 -130 0 -130 0 0 -645z"/>
<path d="M2719 1422 c-200 -54 -311 -220 -312 -466 0 -56 6 -126 13 -156 41
-173 167 -299 329 -330 114 -21 253 -5 342 41 55 28 122 97 152 156 24 47 50
124 43 130 -8 8 -231 32 -236 26 -3 -5 -12 -26 -19 -48 -20 -60 -46 -91 -91
-109 -113 -45 -225 14 -262 138 -17 56 -16 261 0 309 49 139 226 183 314 79
15 -18 29 -45 33 -62 8 -35 -1 -34 135 -15 58 8 108 15 112 15 14 0 -31 103
-67 156 -69 99 -165 145 -320 150 -74 3 -117 -1 -166 -14z"/>
<path d="M3710 1425 c-74 -21 -127 -54 -182 -113 -87 -93 -128 -209 -128 -367
0 -305 167 -485 451 -485 177 0 314 81 385 227 15 29 25 56 22 58 -6 6 -240
37 -242 33 -37 -85 -75 -118 -140 -125 -111 -13 -197 61 -220 190 l-7 37 316
0 c277 0 315 2 315 15 0 58 -24 215 -41 262 -42 122 -125 211 -236 253 -76 29
-216 36 -293 15z m197 -190 c67 -28 104 -79 118 -162 l7 -43 -186 0 -186 0 0
29 c0 70 43 140 104 171 49 24 94 25 143 5z"/>
<path d="M4712 1424 c-72 -19 -107 -39 -165 -93 -100 -93 -137 -181 -144 -351
-15 -328 151 -520 448 -520 174 0 307 77 379 220 17 34 30 64 27 66 -3 3 -217
34 -237 34 -3 0 -14 -18 -24 -40 -58 -132 -261 -113 -319 30 -8 19 -17 52 -21
73 l-7 37 312 0 312 0 -6 103 c-6 133 -33 218 -95 298 -101 133 -286 190 -460
143z m203 -193 c62 -28 93 -75 109 -163 l7 -38 -187 0 -187 0 5 50 c6 65 44
121 100 149 52 26 100 27 153 2z"/>
<path d="M7430 1429 c-65 -13 -144 -55 -181 -96 -33 -39 -95 -160 -86 -169 11
-11 222 -34 225 -25 10 31 52 78 82 94 27 14 50 17 100 14 106 -7 135 -29 146
-112 l7 -44 -69 -20 c-38 -11 -107 -27 -154 -37 -130 -25 -231 -60 -273 -95
-119 -98 -121 -306 -5 -404 64 -54 113 -70 223 -70 87 0 107 3 155 26 30 15
73 40 94 58 22 17 41 30 43 28 2 -2 9 -24 16 -48 l13 -44 122 -3 c67 -1 122
-1 122 1 0 2 -10 30 -22 63 -19 54 -22 85 -28 379 -7 352 -8 362 -70 422 -67
65 -168 94 -324 92 -50 -1 -111 -5 -136 -10z m287 -593 c-7 -93 -25 -128 -84
-163 -38 -22 -60 -28 -110 -28 -73 0 -110 22 -131 78 -16 42 -4 78 38 109 19
13 227 70 284 77 5 1 6 -32 3 -73z"/>
<path d="M8635 1427 c-67 -23 -108 -47 -157 -95 l-48 -46 0 67 0 67 -115 0
-115 0 0 -470 0 -470 124 0 125 0 3 313 c3 302 4 313 26 354 61 115 225 136
296 40 20 -27 21 -43 24 -368 l3 -339 125 0 125 0 -3 378 c-3 337 -5 381 -21
417 -25 56 -81 110 -141 136 -63 27 -193 35 -251 16z"/>
<path d="M11130 1429 c-25 -5 -77 -25 -117 -44 -126 -62 -208 -176 -240 -334
-33 -158 19 -353 120 -455 112 -111 318 -163 480 -121 176 46 315 192 347 364
70 375 -217 662 -590 590z m184 -191 c60 -18 118 -81 140 -151 28 -89 19 -243
-17 -314 -74 -142 -242 -164 -349 -45 -46 51 -68 122 -68 222 0 100 22 171 68
222 64 71 137 92 226 66z"/>
<path d="M12124 1425 c-155 -34 -244 -133 -244 -273 0 -171 101 -245 442 -322
111 -25 148 -47 148 -91 0 -59 -71 -99 -175 -99 -96 1 -154 35 -187 108 -10
23 -20 42 -21 42 -14 0 -240 -30 -242 -32 -2 -2 6 -27 17 -55 43 -116 168
-210 312 -234 93 -16 245 -6 319 20 152 53 237 172 224 314 -12 139 -94 198
-373 271 -198 51 -222 61 -230 93 -8 31 0 48 33 70 39 26 197 26 236 0 24 -15
60 -63 69 -90 3 -6 227 18 234 25 1 2 -7 26 -17 54 -24 62 -77 126 -134 159
-86 51 -277 69 -411 40z"/>
<path d="M13180 1425 c-74 -21 -127 -54 -182 -113 -87 -93 -128 -209 -128
-367 0 -305 167 -485 451 -485 177 0 314 81 385 227 15 29 25 56 22 58 -6 6
-240 37 -242 33 -37 -85 -75 -118 -140 -125 -111 -13 -197 61 -220 190 l-7 37
316 0 c277 0 315 2 315 15 0 58 -24 215 -41 262 -42 122 -125 211 -236 253
-76 29 -216 36 -293 15z m197 -190 c67 -28 104 -79 118 -162 l7 -43 -186 0
-186 0 0 29 c0 70 43 140 104 171 49 24 94 25 143 5z"/>
<path d="M1333 1413 c3 -5 84 -216 181 -471 l175 -463 -20 -55 c-40 -106 -105
-144 -224 -129 l-53 6 5 -43 c18 -147 16 -142 48 -149 50 -11 161 -10 217 2
104 22 162 69 214 171 14 28 111 284 214 567 103 284 193 529 199 544 l11 28
-131 -3 -132 -3 -105 -322 c-58 -178 -108 -323 -112 -323 -3 0 -54 146 -113
325 l-109 325 -134 0 c-75 0 -133 -3 -131 -7z"/>
</g>
</svg>
