<?xml version="1.0" encoding="iso-8859-1"?>
<!-- Uploaded to: SVG Repo, www.svgrepo.com, Generator: SVG Repo Mixer Tools -->
<!DOCTYPE svg PUBLIC "-//W3C//DTD SVG 1.1//EN" "http://www.w3.org/Graphics/SVG/1.1/DTD/svg11.dtd">
<svg fill="#000000" height="800px" width="800px" version="1.1" id="Capa_1" xmlns="http://www.w3.org/2000/svg" xmlns:xlink="http://www.w3.org/1999/xlink" 
	 viewBox="0 0 297 297" xml:space="preserve">
<g>
	<path d="M72.633,4.064c-21.017,0-39.127,23.768-53.826,70.641C7.206,111.701,0,157.15,0,193.322
		c0,38.484,7.898,66.93,26.414,95.113c1.845,2.809,4.98,4.5,8.342,4.5h75.755c3.361,0,6.496-1.691,8.343-4.5
		c18.515-28.188,26.414-56.633,26.414-95.113c0-36.17-7.207-81.621-18.809-118.617C111.76,27.832,93.65,4.064,72.633,4.064z
		 M44.677,61.471l13.874,13.941l-26.664,26.795c1.824-7.445,3.819-14.676,5.969-21.527C40.086,73.568,42.374,67.18,44.677,61.471z
		 M72.632,89.563l47.213,47.441c-0.698,18.586-11.879,26.951-47.481,26.951c-35.116,0-46.466-8.371-47.438-26.453L72.632,89.563z
		 M86.713,75.412l13.876-13.943c2.303,5.709,4.592,12.1,6.822,19.211c2.149,6.854,4.145,14.082,5.969,21.527L86.713,75.412z
		 M72.633,24.027c4.889,0,11.635,5.852,18.824,18.318L72.632,61.262L53.808,42.346C60.998,29.881,67.744,24.027,72.633,24.027z
		 M105.018,272.975h-64.77c-14.181-23.273-20.286-47.434-20.286-79.652c0-5.906,0.22-12.135,0.632-18.57
		c2.217,1.488,4.651,2.793,7.332,3.891c11.928,4.879,27.182,5.275,44.438,5.275c17.255,0,32.509-0.396,44.436-5.275
		c2.887-1.18,5.504-2.592,7.853-4.227c0.427,6.557,0.652,12.898,0.652,18.906C125.305,225.537,119.2,249.697,105.018,272.975z"/>
	<path d="M278.191,74.705c-14.699-46.873-32.81-70.641-53.826-70.641c-21.018,0-39.127,23.768-53.826,70.641
		c-11.602,36.996-18.808,82.445-18.808,118.617c0,38.484,7.9,66.93,26.414,95.113c1.846,2.809,4.982,4.5,8.342,4.5h75.755
		c3.362,0,6.497-1.691,8.343-4.5C289.101,260.248,297,231.803,297,193.322C297,157.152,289.792,111.701,278.191,74.705z
		 M252.32,61.469c2.304,5.709,4.592,12.1,6.822,19.211c2.149,6.854,4.145,14.082,5.97,21.527l-26.667-26.795L252.32,61.469z
		 M224.365,24.027c4.888,0,11.634,5.852,18.824,18.318l-18.825,18.916L205.54,42.346C212.73,29.881,219.476,24.027,224.365,24.027z
		 M189.587,80.68c2.231-7.111,4.52-13.5,6.821-19.209l13.875,13.941l-26.664,26.795C185.442,94.762,187.437,87.531,189.587,80.68z
		 M224.364,89.563l47.212,47.441c-0.697,18.586-11.879,26.951-47.482,26.951c-35.116,0-46.466-8.371-47.438-26.453L224.364,89.563z
		 M256.75,272.975h-64.77c-14.182-23.273-20.286-47.434-20.286-79.652c0-5.906,0.219-12.135,0.631-18.57
		c2.217,1.488,4.651,2.793,7.332,3.891c11.928,4.879,27.182,5.275,44.438,5.275c17.255,0,32.509-0.396,44.437-5.275
		c2.887-1.18,5.504-2.592,7.852-4.227c0.427,6.557,0.653,12.898,0.653,18.906C277.037,225.537,270.932,249.697,256.75,272.975z"/>
</g>
</svg>